# Blender 4.2.0
# www.blender.org
mtllib FloppyDisk.mtl
o Cube
v -1.000000 -1.000000 0.100000
v -1.000000 1.000000 0.100000
v -1.000000 -1.000000 -0.100000
v -1.000000 1.000000 -0.100000
v -0.199602 0.199602 -0.100000
v -0.199602 -0.199602 -0.100000
v -1.000000 0.000000 0.100000
v -1.000000 0.000000 -0.100000
v -0.279108 0.000000 -0.100000
v 0.000000 -0.279108 -0.100000
v 0.000000 0.279108 -0.100000
v -0.199602 0.199602 -0.002744
v -0.199602 -0.199602 -0.002744
v 0.000000 -1.000000 -0.100000
v -0.279108 0.000000 -0.002744
v 0.000000 -0.279108 -0.002744
v 0.000000 0.279108 -0.002744
v -0.486545 0.345493 -0.100000
v 0.000000 0.345493 -0.100000
v -0.768283 1.001025 -0.096942
v -0.768283 0.346518 -0.096942
v 0.000000 0.346518 -0.055075
v 0.000000 1.001025 -0.055075
v -0.768283 -1.000000 0.100000
v -0.768283 1.001025 -0.055075
v -0.768283 0.346518 -0.055075
v 0.000000 1.000000 0.053255
v 0.000000 0.345493 0.053255
v -0.768283 1.000000 0.053255
v -0.768283 0.345493 0.053255
v -0.768283 1.000000 0.100000
v 0.000000 0.345493 0.100000
v -0.768283 0.345493 0.100000
v -0.768283 0.130207 0.100000
v 0.000000 0.130207 0.100000
v 0.000000 -1.000000 0.053255
v -0.768283 -1.000000 0.053255
v -0.768283 0.130207 0.053255
v 0.000000 0.130207 0.053255
v -0.792754 -0.735278 0.100000
v -0.792754 -0.907018 0.100000
v -0.969484 -0.907018 0.100000
v -0.969484 -0.735278 0.100000
v -0.792754 -0.735278 0.053834
v -0.792754 -0.907018 0.053834
v -0.969484 -0.907018 0.053834
v -0.969484 -0.735278 0.053834
v 0.000000 0.000000 -0.002744
v 1.000000 -1.000000 0.100000
v 1.000000 1.000000 0.100000
v 1.000000 -1.000000 -0.100000
v 1.000000 1.000000 -0.100000
v 0.199602 0.199602 -0.100000
v 0.199602 -0.199602 -0.100000
v 1.000000 0.000000 0.100000
v 1.000000 0.000000 -0.100000
v 0.279108 0.000000 -0.100000
v 0.199602 0.199602 -0.002744
v 0.199602 -0.199602 -0.002744
v 0.279108 0.000000 -0.002744
v 0.486545 0.345493 -0.100000
v 0.768283 1.001025 -0.096942
v 0.768283 0.346518 -0.096942
v 0.768283 -1.000000 0.100000
v 0.768283 1.001025 -0.055075
v 0.768283 0.346518 -0.055075
v 0.768283 1.000000 0.053255
v 0.768283 0.345493 0.053255
v 0.768283 1.000000 0.100000
v 0.768283 0.345493 0.100000
v 0.768283 0.130207 0.100000
v 0.768283 -1.000000 0.053255
v 0.768283 0.130207 0.053255
v 0.792754 -0.735278 0.100000
v 0.792754 -0.907018 0.100000
v 0.969484 -0.907018 0.100000
v 0.969484 -0.735278 0.100000
v 0.792754 -0.735278 0.053834
v 0.792754 -0.907018 0.053834
v 0.969484 -0.907018 0.053834
v 0.969484 -0.735278 0.053834
vn -1.0000 -0.0000 -0.0000
vn -0.0064 -0.0038 -1.0000
vn -0.0000 -0.0000 -1.0000
vn -0.0000 -0.0000 1.0000
vn 0.3700 0.9290 -0.0000
vn 0.3700 -0.9290 -0.0000
vn 0.9290 -0.3700 -0.0000
vn 1.0000 -0.0000 -0.0000
vn 0.9290 0.3700 -0.0000
vn -0.0000 -1.0000 -0.0000
vn -0.0000 0.9997 -0.0228
vn 0.0132 -0.0000 -0.9999
vn -0.0044 1.0000 -0.0000
vn -0.0000 1.0000 0.0095
vn -0.0000 1.0000 -0.0000
vn 0.0036 1.0000 -0.0000
vn -0.0000 0.0088 -1.0000
vn 0.0019 1.0000 0.0095
vn 0.0064 -0.0038 -1.0000
vn -0.3700 0.9290 -0.0000
vn -0.3700 -0.9290 -0.0000
vn -0.9290 -0.3700 -0.0000
vn -0.9290 0.3700 -0.0000
vn -0.0132 -0.0000 -0.9999
vn 0.0044 1.0000 -0.0000
vn -0.0036 1.0000 -0.0000
vn -0.0019 1.0000 0.0095
vt 0.500000 0.250000
vt 0.500000 0.000000
vt 0.625000 0.250000
vt 0.583912 0.250000
vt 0.375000 0.250000
vt 0.000000 0.000000
vt 0.250000 0.500000
vt 0.125000 0.500000
vt 0.875000 0.500000
vt 0.750000 0.500000
vt 0.288106 0.000000
vt 0.375000 0.000000
vt 0.785375 0.410375
vt 0.714031 0.428062
vt 0.625000 0.000000
vt 0.311564 0.000000
vt 0.230706 0.000000
vt 0.403147 0.000000
vt 0.500000 0.500000
s 0
f 8/1/1 7/2/1 4/3/1
f 9/1/2 21/4/2 18/3/2 5/3/2
f 3/5/3 8/1/3 6/5/3
f 34/6/4 33/6/4 7/2/4
f 10/7/5 6/8/5 13/8/5 16/7/5
f 5/9/6 11/10/6 17/10/6 12/9/6
f 9/1/7 5/3/7 12/3/7 15/1/7
f 14/6/3 6/5/3 10/7/3
f 21/4/8 25/3/8 26/4/8
f 6/5/9 9/1/9 15/1/9 13/5/9
f 3/5/10 37/11/10 1/12/10
f 22/6/11 18/13/11 26/4/11
f 19/14/11 18/13/11 22/6/11
f 18/13/3 19/14/3 11/10/3 5/9/3
f 25/3/3 23/3/3 22/6/3
f 21/4/12 8/1/12 4/3/12 20/3/12
f 25/3/13 4/3/13 2/6/13
f 29/6/14 27/6/14 25/3/14
f 25/3/13 20/3/13 4/3/13
f 27/6/14 23/3/14 25/3/14
f 2/6/15 31/6/15 29/6/15
f 30/6/8 29/6/8 33/6/8
f 24/11/4 42/12/4 1/12/4
f 2/6/4 7/2/4 33/6/4
f 29/6/4 30/6/4 27/6/4
f 28/6/15 30/6/15 33/6/15 32/6/15
f 21/4/16 26/4/16 18/3/16
f 25/3/3 22/6/3 26/4/3
f 27/6/4 30/6/4 28/6/4
f 33/6/8 29/6/8 31/6/8
f 4/3/1 7/2/1 2/15/1
f 21/4/8 20/3/8 25/3/8
f 21/4/17 9/1/17 8/1/17
f 6/5/3 8/1/3 9/1/3
f 6/5/3 14/6/3 3/5/3
f 3/5/10 14/6/10 37/11/10
f 37/11/4 39/6/4 38/6/4
f 35/6/4 32/6/4 33/6/4 34/16/4
f 38/6/10 35/6/10 34/16/10
f 14/6/10 36/6/10 37/11/10
f 37/11/10 24/11/10 1/12/10
f 29/6/18 25/3/18 2/6/18
f 37/11/4 36/6/4 39/6/4
f 38/6/10 39/6/10 35/6/10
f 33/6/4 31/6/4 2/6/4
f 40/17/1 45/11/1 41/11/1
f 43/18/4 1/12/4 42/12/4
f 24/11/4 34/6/4 40/17/4
f 44/17/10 43/18/10 47/18/10
f 44/17/4 46/12/4 45/11/4
f 42/12/8 47/18/8 43/18/8
f 41/11/15 46/12/15 42/12/15
f 7/6/4 1/12/4 43/18/4
f 43/18/4 40/17/4 7/6/4
f 7/6/4 40/17/4 34/6/4
f 24/11/4 41/11/4 42/12/4
f 24/11/4 40/17/4 41/11/4
f 42/12/8 46/12/8 47/18/8
f 44/17/4 47/18/4 46/12/4
f 44/17/10 40/17/10 43/18/10
f 40/17/1 44/17/1 45/11/1
f 41/11/15 45/11/15 46/12/15
f 7/6/1 3/5/1 1/12/1
f 7/6/1 8/1/1 3/5/1
f 24/11/8 38/6/8 34/6/8
f 24/11/8 37/11/8 38/6/8
f 48/19/3 16/7/3 13/8/3
f 13/8/3 15/1/3 48/19/3
f 15/1/3 12/3/3 48/19/3
f 12/3/3 17/10/3 48/19/3
f 56/1/8 52/3/8 55/2/8
f 57/1/19 53/3/19 61/3/19 63/4/19
f 51/5/3 54/5/3 56/1/3
f 71/6/4 55/2/4 70/6/4
f 10/7/20 16/7/20 59/8/20 54/8/20
f 53/9/21 58/9/21 17/10/21 11/10/21
f 57/1/22 60/1/22 58/3/22 53/3/22
f 14/6/3 10/7/3 54/5/3
f 63/4/1 66/4/1 65/3/1
f 54/5/23 59/5/23 60/1/23 57/1/23
f 51/5/10 49/12/10 72/11/10
f 22/6/11 66/4/11 61/13/11
f 19/14/11 22/6/11 61/13/11
f 61/13/3 53/9/3 11/10/3 19/14/3
f 65/3/3 22/6/3 23/3/3
f 63/4/24 62/3/24 52/3/24 56/1/24
f 65/3/25 50/6/25 52/3/25
f 67/6/14 65/3/14 27/6/14
f 65/3/25 52/3/25 62/3/25
f 27/6/14 65/3/14 23/3/14
f 50/6/15 67/6/15 69/6/15
f 68/6/1 70/6/1 67/6/1
f 64/11/4 49/12/4 76/12/4
f 50/6/4 70/6/4 55/2/4
f 67/6/4 27/6/4 68/6/4
f 28/6/15 32/6/15 70/6/15 68/6/15
f 63/4/26 61/3/26 66/4/26
f 65/3/3 66/4/3 22/6/3
f 27/6/4 28/6/4 68/6/4
f 70/6/1 69/6/1 67/6/1
f 52/3/8 50/15/8 55/2/8
f 63/4/1 65/3/1 62/3/1
f 63/4/17 56/1/17 57/1/17
f 54/5/3 57/1/3 56/1/3
f 54/5/3 51/5/3 14/6/3
f 51/5/10 72/11/10 14/6/10
f 72/11/4 73/6/4 39/6/4
f 35/6/4 71/16/4 70/6/4 32/6/4
f 73/6/10 71/16/10 35/6/10
f 14/6/10 72/11/10 36/6/10
f 72/11/10 49/12/10 64/11/10
f 67/6/27 50/6/27 65/3/27
f 72/11/4 39/6/4 36/6/4
f 73/6/10 35/6/10 39/6/10
f 70/6/4 50/6/4 69/6/4
f 74/17/8 75/11/8 79/11/8
f 77/18/4 76/12/4 49/12/4
f 64/11/4 74/17/4 71/6/4
f 78/17/10 81/18/10 77/18/10
f 78/17/4 79/11/4 80/12/4
f 76/12/1 77/18/1 81/18/1
f 75/11/15 76/12/15 80/12/15
f 55/6/4 77/18/4 49/12/4
f 77/18/4 55/6/4 74/17/4
f 55/6/4 71/6/4 74/17/4
f 64/11/4 76/12/4 75/11/4
f 64/11/4 75/11/4 74/17/4
f 76/12/1 81/18/1 80/12/1
f 78/17/4 80/12/4 81/18/4
f 78/17/10 77/18/10 74/17/10
f 74/17/8 79/11/8 78/17/8
f 75/11/15 80/12/15 79/11/15
f 55/6/8 49/12/8 51/5/8
f 55/6/8 51/5/8 56/1/8
f 64/11/1 71/6/1 73/6/1
f 64/11/1 73/6/1 72/11/1
f 48/19/3 59/8/3 16/7/3
f 59/8/3 48/19/3 60/1/3
f 60/1/3 48/19/3 58/3/3
f 58/3/3 48/19/3 17/10/3
o Cube.001
v -0.309782 0.376900 0.106106
v -0.309782 1.033382 0.106106
v -0.309782 0.376900 -0.106106
v -0.309782 1.033382 -0.106106
v 0.738899 0.376900 0.106106
v 0.738899 1.033382 0.106106
v 0.738899 0.376900 -0.106106
v 0.738899 1.033382 -0.106106
v 0.213496 0.473303 0.106106
v 0.213496 0.929316 0.106106
v 0.213496 0.929316 -0.106106
v 0.213496 0.473303 -0.106106
v 0.487422 0.473303 -0.106106
v 0.487422 0.929316 -0.106106
v 0.487422 0.929316 0.106106
v 0.487422 0.473303 0.106106
vn -1.0000 -0.0000 -0.0000
vn -0.0000 -0.0000 1.0000
vn 1.0000 -0.0000 -0.0000
vn -0.0000 -1.0000 -0.0000
vn -0.0000 1.0000 -0.0000
vn -0.0000 -0.0000 -1.0000
vt 0.625000 0.000000
vt 0.375000 0.250000
vt 0.375000 0.000000
vt 0.625000 0.750000
vt 0.375000 0.750000
vt 0.625000 0.500000
vt 0.375000 0.500000
vt 0.875000 0.750000
vt 0.125000 0.750000
vt 0.125000 0.500000
vt 0.875000 0.500000
vt 0.625000 0.250000
s 0
f 83/20/28 84/21/28 82/22/28
f 87/23/29 97/24/29 86/24/29
f 89/25/30 86/24/30 88/26/30
f 87/23/29 91/27/29 96/23/29
f 88/26/31 82/28/31 84/29/31
f 85/30/32 87/23/32 89/25/32
f 89/25/33 92/30/33 85/30/33
f 85/31/33 93/21/33 84/21/33
f 82/22/29 91/20/29 83/20/29
f 86/24/29 90/28/29 82/28/29
f 88/26/33 95/25/33 89/25/33
f 88/26/33 93/29/33 94/26/33
f 95/25/31 91/27/31 92/30/31
f 94/26/28 96/23/28 95/25/28
f 93/29/32 97/24/32 94/26/32
f 92/31/30 90/22/30 93/21/30
f 83/20/28 85/31/28 84/21/28
f 87/23/29 96/23/29 97/24/29
f 89/25/30 87/23/30 86/24/30
f 87/23/29 83/27/29 91/27/29
f 88/26/31 86/24/31 82/28/31
f 85/30/32 83/27/32 87/23/32
f 89/25/33 95/25/33 92/30/33
f 85/31/33 92/31/33 93/21/33
f 82/22/29 90/22/29 91/20/29
f 86/24/29 97/24/29 90/28/29
f 88/26/33 94/26/33 95/25/33
f 88/26/33 84/29/33 93/29/33
f 95/25/31 96/23/31 91/27/31
f 94/26/28 97/24/28 96/23/28
f 93/29/32 90/28/32 97/24/32
f 92/31/30 91/20/30 90/22/30
o Cylinder
v 0.000000 0.241593 -0.130209
v 0.000000 0.241593 0.015077
v 0.170832 0.170832 -0.130209
v 0.170832 0.170832 0.015077
v 0.241593 0.000000 -0.130209
v 0.241593 0.000000 0.015077
v 0.170832 -0.170832 -0.130209
v 0.170832 -0.170832 0.015077
v 0.000000 -0.241593 -0.130209
v 0.000000 -0.241593 0.015077
v -0.170832 -0.170832 -0.130209
v -0.170832 -0.170832 0.015077
v -0.241593 0.000000 -0.130209
v -0.241593 0.000000 0.015077
v -0.170832 0.170832 -0.130209
v -0.170832 0.170832 0.015077
vn 0.3827 0.9239 -0.0000
vn 0.9239 0.3827 -0.0000
vn 0.9239 -0.3827 -0.0000
vn 0.3827 -0.9239 -0.0000
vn -0.3827 -0.9239 -0.0000
vn -0.9239 -0.3827 -0.0000
vn -0.0000 -0.0000 1.0000
vn -0.9239 0.3827 -0.0000
vn -0.3827 0.9239 -0.0000
vn -0.0000 -0.0000 -1.0000
vt 1.000000 0.500000
vt 1.000000 1.000000
vt 0.875000 1.000000
vt 0.875000 0.500000
vt 0.750000 1.000000
vt 0.750000 0.500000
vt 0.625000 1.000000
vt 0.625000 0.500000
vt 0.500000 1.000000
vt 0.500000 0.500000
vt 0.375000 1.000000
vt 0.375000 0.500000
vt 0.250000 1.000000
vt 0.250000 0.500000
vt 0.419706 0.419706
vt 0.250000 0.490000
vt 0.080294 0.419706
vt 0.010000 0.250000
vt 0.080294 0.080294
vt 0.250000 0.010000
vt 0.419706 0.080294
vt 0.490000 0.250000
vt 0.125000 1.000000
vt 0.125000 0.500000
vt 0.000000 1.000000
vt 0.000000 0.500000
vt 0.750000 0.490000
vt 0.919706 0.419706
vt 0.990000 0.250000
vt 0.919706 0.080294
vt 0.750000 0.010000
vt 0.580294 0.080294
vt 0.510000 0.250000
vt 0.580294 0.419706
s 0
f 98/32/34 99/33/34 101/34/34 100/35/34
f 100/35/35 101/34/35 103/36/35 102/37/35
f 102/37/36 103/36/36 105/38/36 104/39/36
f 104/39/37 105/38/37 107/40/37 106/41/37
f 106/41/38 107/40/38 109/42/38 108/43/38
f 108/43/39 109/42/39 111/44/39 110/45/39
f 101/46/40 99/47/40 113/48/40 111/49/40 109/50/40 107/51/40 105/52/40 103/53/40
f 110/45/41 111/44/41 113/54/41 112/55/41
f 112/55/42 113/54/42 99/56/42 98/57/42
f 98/58/43 100/59/43 102/60/43 104/61/43 106/62/43 108/63/43 110/64/43 112/65/43
