# Blender 4.1.1
# www.blender.org
mtllib Jetpack.mtl
o Cylinder
v -0.741465 -1.000000 -0.477237
v -0.741465 1.000000 -0.477237
v -0.328166 -1.000000 -0.238618
v -0.328166 1.000000 -0.238618
v -0.328166 -1.000000 0.238618
v -0.328166 1.000000 0.238618
v -0.741465 -1.000000 0.477237
v -0.741465 1.000000 0.477237
v -1.154764 -1.000000 0.238618
v -1.154764 1.000000 0.238618
v -1.154764 -1.000000 -0.238618
v -1.154764 1.000000 -0.238618
v -0.328166 0.104974 -0.103362
v -0.328166 -0.104974 -0.103362
v -0.328166 -0.104974 0.103362
v -0.328166 0.104974 0.103362
v 0.000000 0.104974 -0.103362
v 0.000000 -0.104974 -0.103362
v 0.000000 -0.104974 0.103362
v 0.000000 0.104974 0.103362
v -0.474161 1.258102 -0.154328
v -0.741465 1.258102 -0.308656
v -0.474161 1.258102 0.154328
v -0.741465 1.258102 0.308656
v -1.008770 1.258102 0.154328
v -1.008770 1.258102 -0.154328
v -0.741465 -1.000000 -0.263686
v -0.513107 -1.000000 -0.131843
v -0.513107 -1.000000 0.131843
v -0.741465 -1.000000 0.263686
v -0.969824 -1.000000 0.131843
v -0.969824 -1.000000 -0.131843
v -0.741465 -1.129042 -0.390141
v -0.403594 -1.129042 -0.195070
v -0.403594 -1.129042 0.195070
v -0.741465 -1.129042 0.390141
v -1.079337 -1.129042 0.195070
v -1.079337 -1.129042 -0.195070
v -0.741465 -1.129042 -0.202611
v -0.566000 -1.129042 -0.101305
v -0.566000 -1.129042 0.101305
v -0.741465 -1.129042 0.202611
v -0.916931 -1.129042 0.101305
v -0.916931 -1.129042 -0.101305
v -0.741465 -1.046958 -0.202611
v -0.566000 -1.046958 -0.101305
v -0.566000 -1.046958 0.101305
v -0.741465 -1.046958 0.202611
v -0.916931 -1.046958 0.101305
v -0.916931 -1.046958 -0.101305
v 0.741465 -1.000000 -0.477237
v 0.741465 1.000000 -0.477237
v 0.328166 -1.000000 -0.238618
v 0.328166 1.000000 -0.238618
v 0.328166 -1.000000 0.238618
v 0.328166 1.000000 0.238618
v 0.741465 -1.000000 0.477237
v 0.741465 1.000000 0.477237
v 1.154764 -1.000000 0.238618
v 1.154764 1.000000 0.238618
v 1.154764 -1.000000 -0.238618
v 1.154764 1.000000 -0.238618
v 0.328166 0.104974 -0.103362
v 0.328166 -0.104974 -0.103362
v 0.328166 -0.104974 0.103362
v 0.328166 0.104974 0.103362
v 0.474161 1.258102 -0.154328
v 0.741465 1.258102 -0.308656
v 0.474161 1.258102 0.154328
v 0.741465 1.258102 0.308656
v 1.008770 1.258102 0.154328
v 1.008770 1.258102 -0.154328
v 0.741465 -1.000000 -0.263686
v 0.513107 -1.000000 -0.131843
v 0.513107 -1.000000 0.131843
v 0.741465 -1.000000 0.263686
v 0.969824 -1.000000 0.131843
v 0.969824 -1.000000 -0.131843
v 0.741465 -1.129042 -0.390141
v 0.403594 -1.129042 -0.195070
v 0.403594 -1.129042 0.195070
v 0.741465 -1.129042 0.390141
v 1.079337 -1.129042 0.195070
v 1.079337 -1.129042 -0.195070
v 0.741465 -1.129042 -0.202611
v 0.566000 -1.129042 -0.101305
v 0.566000 -1.129042 0.101305
v 0.741465 -1.129042 0.202611
v 0.916931 -1.129042 0.101305
v 0.916931 -1.129042 -0.101305
v 0.741465 -1.046958 -0.202611
v 0.566000 -1.046958 -0.101305
v 0.566000 -1.046958 0.101305
v 0.741465 -1.046958 0.202611
v 0.916931 -1.046958 0.101305
v 0.916931 -1.046958 -0.101305
vn 0.5000 -0.0000 -0.8660
vn 1.0000 -0.0000 -0.0000
vn 0.5000 -0.0000 0.8660
vn -0.5000 -0.0000 0.8660
vn -0.4352 0.4923 0.7538
vn -1.0000 -0.0000 -0.0000
vn -0.5000 -0.0000 -0.8660
vn -0.0000 -1.0000 -0.0000
vn -0.0000 1.0000 -0.0000
vn -0.0000 -0.0000 -1.0000
vn -0.0000 -0.0000 1.0000
vn 0.8704 0.4923 -0.0000
vn -0.8704 0.4923 -0.0000
vn 0.4352 0.4923 -0.7538
vn 0.4352 0.4923 0.7538
vn -0.4352 0.4923 -0.7538
vn 0.3812 0.6471 -0.6603
vn -0.3812 0.6471 -0.6603
vn -0.3812 0.6471 0.6603
vn 0.7624 0.6471 -0.0000
vn -0.7624 0.6471 -0.0000
vn 0.3812 0.6471 0.6603
vt 1.000000 0.500000
vt 1.000000 1.000000
vt 0.833333 1.000000
vt 0.833333 0.500000
vt 0.457846 0.370000
vt 0.457846 0.130000
vt 0.666667 0.500000
vt 0.666667 1.000000
vt 0.500000 1.000000
vt 0.500000 0.500000
vt 0.333333 1.000000
vt 0.333333 0.500000
vt 0.166667 1.000000
vt 0.166667 0.500000
vt -0.000000 1.000000
vt -0.000000 0.500000
vt 0.957846 0.130000
vt 0.957846 0.370000
vt 0.250000 0.490000
vt 0.042154 0.370000
vt 0.042154 0.130000
vt 0.250000 0.010000
vt 0.750000 0.490000
vt 0.750000 0.010000
vt 0.542154 0.130000
vt 0.542154 0.370000
s 0
f 1/1/1 2/2/1 4/3/1 3/4/1
f 4/5/2 6/6/2 16/6/2 13/5/2
f 5/7/3 6/8/3 8/9/3 7/10/3
f 7/10/4 8/9/4 10/11/4 9/12/4
f 10/11/5 8/9/5 24/9/5 25/11/5
f 9/12/6 10/11/6 12/13/6 11/14/6
f 11/14/7 12/13/7 2/15/7 1/16/7
f 9/12/8 11/14/8 32/14/8 31/12/8
f 13/5/9 16/6/9 20/6/9 17/5/9
f 3/4/2 4/3/2 13/3/2 14/4/2
f 6/8/2 5/7/2 15/7/2 16/8/2
f 5/17/2 3/18/2 14/18/2 15/17/2
f 21/5/9 22/19/9 26/20/9 25/21/9 24/22/9 23/6/9
f 14/4/10 13/3/10 17/3/10 18/4/10
f 16/8/11 15/7/11 19/7/11 20/8/11
f 15/17/8 14/18/8 18/18/8 19/17/8
f 6/6/12 4/5/12 21/5/12 23/6/12
f 12/13/13 10/11/13 25/11/13 26/13/13
f 4/3/14 2/2/14 22/2/14 21/3/14
f 8/9/15 6/8/15 23/8/15 24/9/15
f 2/15/16 12/13/16 26/13/16 22/15/16
f 27/1/17 28/4/17 34/4/17 33/1/17
f 1/1/8 3/4/8 28/4/8 27/1/8
f 5/7/8 7/10/8 30/10/8 29/7/8
f 11/14/8 1/16/8 27/16/8 32/14/8
f 7/10/8 9/12/8 31/12/8 30/10/8
f 3/18/8 5/17/8 29/17/8 28/18/8
f 38/14/8 33/16/8 39/16/8 44/14/8
f 32/14/18 27/16/18 33/16/18 38/14/18
f 30/10/19 31/12/19 37/12/19 36/10/19
f 28/18/20 29/17/20 35/17/20 34/18/20
f 31/12/21 32/14/21 38/14/21 37/12/21
f 29/7/22 30/10/22 36/10/22 35/7/22
f 43/12/2 44/14/2 50/14/2 49/12/2
f 36/10/8 37/12/8 43/12/8 42/10/8
f 34/18/8 35/17/8 41/17/8 40/18/8
f 37/12/8 38/14/8 44/14/8 43/12/8
f 35/7/8 36/10/8 42/10/8 41/7/8
f 33/1/8 34/4/8 40/4/8 39/1/8
f 45/23/8 46/18/8 47/17/8 48/24/8 49/25/8 50/26/8
f 41/7/7 42/10/7 48/10/7 47/7/7
f 39/1/4 40/4/4 46/4/4 45/1/4
f 44/14/3 39/16/3 45/16/3 50/14/3
f 42/10/1 43/12/1 49/12/1 48/10/1
f 40/18/6 41/17/6 47/17/6 46/18/6
f 51/1/7 53/4/7 54/3/7 52/2/7
f 54/5/6 63/5/6 66/6/6 56/6/6
f 55/7/4 57/10/4 58/9/4 56/8/4
f 57/10/3 59/12/3 60/11/3 58/9/3
f 60/11/15 71/11/15 70/9/15 58/9/15
f 59/12/2 61/14/2 62/13/2 60/11/2
f 61/14/1 51/16/1 52/15/1 62/13/1
f 59/12/8 77/12/8 78/14/8 61/14/8
f 63/5/9 17/5/9 20/6/9 66/6/9
f 53/4/6 64/4/6 63/3/6 54/3/6
f 56/8/6 66/8/6 65/7/6 55/7/6
f 55/17/6 65/17/6 64/18/6 53/18/6
f 67/5/9 69/6/9 70/22/9 71/21/9 72/20/9 68/19/9
f 64/4/10 18/4/10 17/3/10 63/3/10
f 66/8/11 20/8/11 19/7/11 65/7/11
f 65/17/8 19/17/8 18/18/8 64/18/8
f 56/6/13 69/6/13 67/5/13 54/5/13
f 62/13/12 72/13/12 71/11/12 60/11/12
f 54/3/16 67/3/16 68/2/16 52/2/16
f 58/9/5 70/9/5 69/8/5 56/8/5
f 52/15/14 68/15/14 72/13/14 62/13/14
f 73/1/18 79/1/18 80/4/18 74/4/18
f 51/1/8 73/1/8 74/4/8 53/4/8
f 55/7/8 75/7/8 76/10/8 57/10/8
f 61/14/8 78/14/8 73/16/8 51/16/8
f 57/10/8 76/10/8 77/12/8 59/12/8
f 53/18/8 74/18/8 75/17/8 55/17/8
f 84/14/8 90/14/8 85/16/8 79/16/8
f 78/14/17 84/14/17 79/16/17 73/16/17
f 76/10/22 82/10/22 83/12/22 77/12/22
f 74/18/21 80/18/21 81/17/21 75/17/21
f 77/12/20 83/12/20 84/14/20 78/14/20
f 75/7/19 81/7/19 82/10/19 76/10/19
f 89/12/6 95/12/6 96/14/6 90/14/6
f 82/10/8 88/10/8 89/12/8 83/12/8
f 80/18/8 86/18/8 87/17/8 81/17/8
f 83/12/8 89/12/8 90/14/8 84/14/8
f 81/7/8 87/7/8 88/10/8 82/10/8
f 79/1/8 85/1/8 86/4/8 80/4/8
f 91/23/8 96/26/8 95/25/8 94/24/8 93/17/8 92/18/8
f 87/7/1 93/7/1 94/10/1 88/10/1
f 85/1/3 91/1/3 92/4/3 86/4/3
f 90/14/4 96/14/4 91/16/4 85/16/4
f 88/10/7 94/10/7 95/12/7 89/12/7
f 86/18/2 92/18/2 93/17/2 87/17/2
