# Blender 4.2.0
# www.blender.org
mtllib Fence.mtl
o Cube
v -0.372428 -1.000000 0.372428
v -0.372428 2.111038 0.372428
v -0.372428 -1.000000 -0.372428
v -0.372428 2.111038 -0.372428
v 0.372428 -1.000000 0.372428
v 0.372428 2.111038 0.372428
v 0.372428 -1.000000 -0.372428
v 0.372428 2.111038 -0.372428
v 0.372428 1.730755 -0.182723
v 0.372428 -0.443539 -0.182723
v 0.372428 -0.443539 0.182723
v 0.372428 1.730755 0.182723
v 0.372428 0.100034 -0.182723
v 0.372428 0.100034 0.182723
v 0.372428 1.187182 -0.182723
v 0.372428 1.187182 0.182723
v 0.372428 0.915395 -0.182723
v 0.372428 0.915395 0.182723
v 0.372428 0.371821 -0.182723
v 0.372428 0.371821 0.182723
v 1.952517 0.100034 -0.182723
v 1.952517 -0.443539 -0.182723
v 1.952517 -0.443539 0.182723
v 1.952517 1.730755 0.182723
v 1.952517 0.100034 0.182723
v 1.952517 0.915395 -0.182723
v 1.952517 0.915395 0.182723
v 1.952517 1.730755 -0.182723
v 1.952517 1.187182 -0.182723
v 1.952517 1.187182 0.182723
v 1.952517 0.371821 -0.182723
v 1.952517 0.371821 0.182723
vn -1.0000 -0.0000 -0.0000
vn -0.0000 -0.0000 -1.0000
vn -0.0000 -0.0000 1.0000
vn -0.0000 -1.0000 -0.0000
vn -0.0000 1.0000 -0.0000
vn 1.0000 -0.0000 -0.0000
vt 0.302178 0.630787
vt 0.151211 0.000245
vt 0.302178 0.000245
vt 0.151211 0.630787
vt 0.000245 0.000245
vt 0.453145 0.630787
vt 0.453145 0.000245
vt 0.605091 0.889148
vt 0.756057 0.738181
vt 0.756057 0.889148
vt 0.604601 0.782243
vt 0.453634 0.631277
vt 0.604601 0.631276
vt 0.395053 0.741937
vt 0.320985 0.852108
vt 0.320985 0.741937
vt 0.320985 0.741448
vt 0.395053 0.631276
vt 0.395053 0.741448
vt 0.925342 0.553452
vt 0.605091 0.479384
vt 0.925342 0.479384
vt 0.492084 0.553712
vt 0.604601 0.630787
vt 0.453634 0.630787
vt 0.925342 0.368724
vt 0.605091 0.368724
vt 0.605091 0.258553
vt 0.925342 0.663624
vt 0.605091 0.737692
vt 0.605091 0.663623
vt 0.566152 0.553712
vt 0.566152 0.113028
vt 0.604601 0.000245
vt 0.566152 0.223199
vt 0.925342 0.074313
vt 0.605091 0.074313
vt 0.605091 0.000245
vt 0.453635 0.000245
vt 0.492084 0.113028
vt 0.492084 0.443541
vt 0.492084 0.223199
vt 0.492084 0.278284
vt 0.492084 0.388455
vt 0.000245 0.631276
vt 0.320496 0.741448
vt 0.000245 0.741448
vt 0.566152 0.278284
vt 0.566152 0.443541
vt 0.566152 0.388455
vt 0.605091 0.553452
vt 0.756547 0.738181
vt 0.830615 0.848352
vt 0.756547 0.848352
vt 0.830615 0.738181
vt 0.320496 0.631276
vt 0.925342 0.737692
vt 0.925342 0.000245
vt 0.925342 0.258553
vt 0.320985 0.631276
vt 0.320496 0.925687
vt 0.000245 0.925687
vt 0.000245 0.815516
vt 0.605091 0.184484
vt 0.925342 0.184484
vt 0.395053 0.852108
vt 0.605091 0.369213
vt 0.925342 0.369213
vt 0.000245 0.999755
vt 0.453634 0.782243
vt 0.605091 0.738181
vt 0.320496 0.815516
vt 0.320496 0.999755
vt 0.000245 0.630787
s 0
f 2/1/1 3/2/1 1/3/1
f 4/4/2 7/5/2 3/2/2
f 6/6/3 1/3/3 5/7/3
f 7/8/4 1/9/4 3/10/4
f 4/11/5 6/12/5 8/13/5
f 29/14/6 24/15/6 30/16/6
f 25/17/6 22/18/6 21/19/6
f 30/20/4 15/21/4 29/22/4
f 2/1/1 4/4/1 3/2/1
f 12/23/6 8/24/6 6/25/6
f 13/26/2 21/27/2 22/28/2
f 24/29/5 9/30/5 12/31/5
f 12/23/6 9/32/6 8/24/6
f 10/33/6 7/34/6 13/35/6
f 14/36/5 25/37/5 21/38/5
f 5/39/6 7/34/6 11/40/6
f 12/23/6 6/25/6 16/41/6
f 7/34/6 10/33/6 11/40/6
f 5/39/6 14/42/6 20/43/6
f 16/41/6 6/25/6 18/44/6
f 5/39/6 11/40/6 14/42/6
f 17/45/2 31/46/2 19/47/2
f 13/35/6 7/34/6 19/48/6
f 8/24/6 9/32/6 15/49/6
f 8/24/6 15/49/6 17/50/6
f 8/24/6 19/48/6 7/34/6
f 16/51/3 30/20/3 24/29/3
f 32/52/6 26/53/6 27/54/6
f 16/51/3 24/29/3 12/31/3
f 20/43/6 6/25/6 5/39/6
f 20/43/6 18/44/6 6/25/6
f 32/52/6 31/55/6 26/53/6
f 8/24/6 17/50/6 19/48/6
f 17/45/2 26/56/2 31/46/2
f 24/29/5 28/57/5 9/30/5
f 14/36/5 21/38/5 13/58/5
f 20/43/6 14/42/6 13/35/6
f 13/26/2 22/28/2 10/59/2
f 30/20/4 16/51/4 15/21/4
f 25/17/6 23/60/6 22/18/6
f 27/61/3 18/62/3 20/63/3
f 10/59/4 23/64/4 11/65/4
f 29/14/6 28/66/6 24/15/6
f 9/67/2 28/68/2 29/22/2
f 27/61/5 17/69/5 18/62/5
f 4/11/5 2/70/5 6/12/5
f 17/50/6 16/41/6 18/44/6
f 7/8/4 5/71/4 1/9/4
f 19/47/4 32/72/4 20/63/4
f 11/65/3 25/37/3 14/36/3
f 9/67/2 29/22/2 15/21/2
f 6/6/3 2/1/3 1/3/3
f 27/61/3 20/63/3 32/72/3
f 11/65/3 23/64/3 25/37/3
f 19/47/4 31/46/4 32/72/4
f 17/50/6 15/49/6 16/41/6
f 27/61/5 26/73/5 17/69/5
f 10/59/4 22/28/4 23/64/4
f 4/4/2 8/74/2 7/5/2
f 20/43/6 13/35/6 19/48/6
