# Blender 4.2.0
# www.blender.org
o Cylinder
v -0.000000 0.000000 -0.784662
v -0.000000 0.281338 -0.784662
v 0.554840 0.000000 -0.554840
v 0.554840 0.281338 -0.554840
v 0.784662 0.000000 0.000000
v 0.784662 0.281338 0.000000
v 0.554840 0.000000 0.554840
v 0.554840 0.281338 0.554840
v -0.000000 0.000000 0.784662
v -0.000000 0.281338 0.784662
v -0.554840 0.000000 0.554840
v -0.554840 0.281338 0.554840
v -0.784662 0.000000 0.000000
v -0.784662 0.281338 0.000000
v -0.554840 0.000000 -0.554840
v -0.554840 0.281338 -0.554840
v 0.000000 0.889115 -0.732171
v 0.517723 0.889115 -0.517723
v 0.732171 0.889115 -0.000000
v 0.517723 0.889115 0.517723
v 0.000000 0.889115 0.732171
v -0.517723 0.889115 0.517723
v -0.732171 0.889115 -0.000000
v -0.517723 0.889115 -0.517723
v 0.000000 1.117910 -0.637618
v 0.450864 1.117910 -0.450864
v 0.637618 1.117910 -0.000000
v 0.450864 1.117910 0.450864
v 0.000000 1.117910 0.637618
v -0.450864 1.117910 0.450864
v -0.637618 1.117910 -0.000000
v -0.450864 1.117910 -0.450864
v -0.000000 1.117910 -0.556463
v 0.393479 1.117910 -0.393479
v 0.556463 1.117910 0.000000
v 0.393479 1.117910 0.393479
v -0.000000 1.117910 0.556463
v -0.393479 1.117910 0.393479
v -0.556463 1.117910 0.000000
v -0.393479 1.117910 -0.393479
v -0.000000 1.041365 -0.520917
v 0.368344 1.041365 -0.368344
v 0.520917 1.041365 0.000000
v 0.368344 1.041365 0.368344
v -0.000000 1.041365 0.520917
v -0.368344 1.041365 0.368344
v -0.520917 1.041365 0.000000
v -0.368344 1.041365 -0.368344
v -0.000000 -0.281338 -0.784662
v 0.554840 -0.281338 -0.554840
v 0.784662 -0.281338 0.000000
v 0.554840 -0.281338 0.554840
v -0.000000 -0.281338 0.784662
v -0.554840 -0.281338 0.554840
v -0.784662 -0.281338 0.000000
v -0.554840 -0.281338 -0.554840
v 0.000000 -0.889115 -0.732171
v 0.517723 -0.889115 -0.517723
v 0.732171 -0.889115 -0.000000
v 0.517723 -0.889115 0.517723
v 0.000000 -0.889115 0.732171
v -0.517723 -0.889115 0.517723
v -0.732171 -0.889115 -0.000000
v -0.517723 -0.889115 -0.517723
v 0.000000 -1.117910 -0.637618
v 0.450864 -1.117910 -0.450864
v 0.637618 -1.117910 -0.000000
v 0.450864 -1.117910 0.450864
v 0.000000 -1.117910 0.637618
v -0.450864 -1.117910 0.450864
v -0.637618 -1.117910 -0.000000
v -0.450864 -1.117910 -0.450864
v -0.000000 -1.117910 -0.556463
v 0.393479 -1.117910 -0.393479
v 0.556463 -1.117910 0.000000
v 0.393479 -1.117910 0.393479
v -0.000000 -1.117910 0.556463
v -0.393479 -1.117910 0.393479
v -0.556463 -1.117910 0.000000
v -0.393479 -1.117910 -0.393479
v -0.000000 -1.041365 -0.520917
v 0.368344 -1.041365 -0.368344
v 0.520917 -1.041365 0.000000
v 0.368344 -1.041365 0.368344
v -0.000000 -1.041365 0.520917
v -0.368344 -1.041365 0.368344
v -0.520917 -1.041365 0.000000
v -0.368344 -1.041365 -0.368344
vn 0.3827 -0.0000 -0.9239
vn 0.9239 -0.0000 -0.3827
vn 0.9239 -0.0000 0.3827
vn 0.3827 -0.0000 0.9239
vn -0.3827 -0.0000 0.9239
vn -0.9239 -0.0000 0.3827
vn -0.9210 0.0795 -0.3815
vn -0.9239 -0.0000 -0.3827
vn -0.3827 -0.0000 -0.9239
vn -0.3575 0.3567 -0.8631
vn -0.8631 0.3567 -0.3575
vn 0.9210 0.0795 -0.3815
vn -0.3815 0.0795 0.9210
vn -0.3815 0.0795 -0.9210
vn 0.3815 0.0795 -0.9210
vn 0.9210 0.0795 0.3815
vn -0.9210 0.0795 0.3815
vn 0.3815 0.0795 0.9210
vn -0.8631 0.3567 0.3575
vn -0.3575 0.3567 0.8631
vn 0.8631 0.3567 -0.3575
vn 0.3575 0.3567 0.8631
vn 0.8631 0.3567 0.3575
vn 0.3575 0.3567 -0.8631
vn -0.0000 1.0000 -0.0000
vn -0.3517 0.3943 0.8490
vn 0.3517 0.3943 0.8490
vn 0.8490 0.3943 -0.3517
vn -0.8490 0.3943 0.3517
vn 0.3517 0.3943 -0.8490
vn 0.8490 0.3943 0.3517
vn -0.3517 0.3943 -0.8490
vn -0.8490 0.3943 -0.3517
vn -0.9210 -0.0795 -0.3815
vn -0.3575 -0.3567 -0.8631
vn -0.8631 -0.3567 -0.3575
vn 0.9210 -0.0795 -0.3815
vn -0.3815 -0.0795 0.9210
vn -0.3815 -0.0795 -0.9210
vn 0.3815 -0.0795 -0.9210
vn 0.9210 -0.0795 0.3815
vn -0.9210 -0.0795 0.3815
vn 0.3815 -0.0795 0.9210
vn -0.8631 -0.3567 0.3575
vn -0.3575 -0.3567 0.8631
vn 0.8631 -0.3567 -0.3575
vn 0.3575 -0.3567 0.8631
vn 0.8631 -0.3567 0.3575
vn 0.3575 -0.3567 -0.8631
vn -0.0000 -1.0000 -0.0000
vn -0.3517 -0.3943 0.8490
vn 0.3517 -0.3943 0.8490
vn 0.8490 -0.3943 -0.3517
vn -0.8490 -0.3943 0.3517
vn 0.3517 -0.3943 -0.8490
vn 0.8490 -0.3943 0.3517
vn -0.3517 -0.3943 -0.8490
vn -0.8490 -0.3943 -0.3517
vt 1.000000 0.500000
vt 1.000000 1.000000
vt 0.875000 1.000000
vt 0.875000 0.500000
vt 0.750000 1.000000
vt 0.750000 0.500000
vt 0.625000 1.000000
vt 0.625000 0.500000
vt 0.500000 1.000000
vt 0.500000 0.500000
vt 0.375000 1.000000
vt 0.375000 0.500000
vt 0.250000 1.000000
vt 0.250000 0.500000
vt 0.125000 1.000000
vt 0.125000 0.500000
vt 0.000000 1.000000
vt 0.000000 0.500000
s 0
f 1/1/1 2/2/1 4/3/1 3/4/1
f 3/4/2 4/3/2 6/5/2 5/6/2
f 5/6/3 6/5/3 8/7/3 7/8/3
f 7/8/4 8/7/4 10/9/4 9/10/4
f 9/10/5 10/9/5 12/11/5 11/12/5
f 11/12/6 12/11/6 14/13/6 13/14/6
f 16/15/7 14/13/7 23/13/7 24/15/7
f 13/14/8 14/13/8 16/15/8 15/16/8
f 15/16/9 16/15/9 2/17/9 1/18/9
f 17/17/10 24/15/10 32/15/10 25/17/10
f 24/15/11 23/13/11 31/13/11 32/15/11
f 6/5/12 4/3/12 18/3/12 19/5/12
f 12/11/13 10/9/13 21/9/13 22/11/13
f 2/17/14 16/15/14 24/15/14 17/17/14
f 4/3/15 2/2/15 17/2/15 18/3/15
f 8/7/16 6/5/16 19/5/16 20/7/16
f 14/13/17 12/11/17 22/11/17 23/13/17
f 10/9/18 8/7/18 20/7/18 21/9/18
f 23/13/19 22/11/19 30/11/19 31/13/19
f 22/11/20 21/9/20 29/9/20 30/11/20
f 19/5/21 18/3/21 26/3/21 27/5/21
f 21/9/22 20/7/22 28/7/22 29/9/22
f 20/7/23 19/5/23 27/5/23 28/7/23
f 18/3/24 17/2/24 25/2/24 26/3/24
f 31/13/25 30/11/25 38/11/25 39/13/25
f 34/3/26 33/2/26 41/2/26 42/3/26
f 27/5/25 26/3/25 34/3/25 35/5/25
f 30/11/25 29/9/25 37/9/25 38/11/25
f 32/15/25 31/13/25 39/13/25 40/15/25
f 29/9/25 28/7/25 36/7/25 37/9/25
f 28/7/25 27/5/25 35/5/25 36/7/25
f 26/3/25 25/2/25 33/2/25 34/3/25
f 25/17/25 32/15/25 40/15/25 33/17/25
f 42/3/25 41/17/25 48/15/25 47/13/25 46/11/25 45/9/25 44/7/25 43/5/25
f 33/17/27 40/15/27 48/15/27 41/17/27
f 39/13/28 38/11/28 46/11/28 47/13/28
f 35/5/29 34/3/29 42/3/29 43/5/29
f 38/11/30 37/9/30 45/9/30 46/11/30
f 40/15/31 39/13/31 47/13/31 48/15/31
f 37/9/32 36/7/32 44/7/32 45/9/32
f 36/7/33 35/5/33 43/5/33 44/7/33
f 1/1/1 3/4/1 50/3/1 49/2/1
f 3/4/2 5/6/2 51/5/2 50/3/2
f 5/6/3 7/8/3 52/7/3 51/5/3
f 7/8/4 9/10/4 53/9/4 52/7/4
f 9/10/5 11/12/5 54/11/5 53/9/5
f 11/12/6 13/14/6 55/13/6 54/11/6
f 56/15/34 64/15/34 63/13/34 55/13/34
f 13/14/8 15/16/8 56/15/8 55/13/8
f 15/16/9 1/18/9 49/17/9 56/15/9
f 57/17/35 65/17/35 72/15/35 64/15/35
f 64/15/36 72/15/36 71/13/36 63/13/36
f 51/5/37 59/5/37 58/3/37 50/3/37
f 54/11/38 62/11/38 61/9/38 53/9/38
f 49/17/39 57/17/39 64/15/39 56/15/39
f 50/3/40 58/3/40 57/2/40 49/2/40
f 52/7/41 60/7/41 59/5/41 51/5/41
f 55/13/42 63/13/42 62/11/42 54/11/42
f 53/9/43 61/9/43 60/7/43 52/7/43
f 63/13/44 71/13/44 70/11/44 62/11/44
f 62/11/45 70/11/45 69/9/45 61/9/45
f 59/5/46 67/5/46 66/3/46 58/3/46
f 61/9/47 69/9/47 68/7/47 60/7/47
f 60/7/48 68/7/48 67/5/48 59/5/48
f 58/3/49 66/3/49 65/2/49 57/2/49
f 71/13/50 79/13/50 78/11/50 70/11/50
f 74/3/51 82/3/51 81/2/51 73/2/51
f 67/5/50 75/5/50 74/3/50 66/3/50
f 70/11/50 78/11/50 77/9/50 69/9/50
f 72/15/50 80/15/50 79/13/50 71/13/50
f 69/9/50 77/9/50 76/7/50 68/7/50
f 68/7/50 76/7/50 75/5/50 67/5/50
f 66/3/50 74/3/50 73/2/50 65/2/50
f 65/17/50 73/17/50 80/15/50 72/15/50
f 82/3/50 83/5/50 84/7/50 85/9/50 86/11/50 87/13/50 88/15/50 81/17/50
f 73/17/52 81/17/52 88/15/52 80/15/52
f 79/13/53 87/13/53 86/11/53 78/11/53
f 75/5/54 83/5/54 82/3/54 74/3/54
f 78/11/55 86/11/55 85/9/55 77/9/55
f 80/15/56 88/15/56 87/13/56 79/13/56
f 77/9/57 85/9/57 84/7/57 76/7/57
f 76/7/58 84/7/58 83/5/58 75/5/58
o Cylinder.001
v -0.706729 1.015617 0.000000
v -0.000000 0.886892 -0.763009
v -0.000000 1.015617 -0.706729
v 0.539529 0.886892 -0.539529
v 0.499733 1.015617 -0.499733
v 0.763009 0.886892 -0.000000
v 0.706729 1.015617 0.000000
v 0.539529 0.886892 0.539529
v 0.499733 1.015617 0.499733
v -0.000000 0.886892 0.763009
v -0.000000 1.015617 0.706729
v -0.539529 0.886892 0.539529
v -0.499733 1.015617 0.499733
v -0.763009 0.886892 -0.000000
v -0.539529 0.886892 -0.539529
v -0.499733 1.015617 -0.499733
v -0.000000 0.559365 -0.797859
v -0.000000 0.688089 -0.779609
v 0.564172 0.559365 -0.564172
v 0.551267 0.688089 -0.551267
v 0.797859 0.559365 -0.000000
v 0.779609 0.688089 -0.000000
v 0.564172 0.559365 0.564172
v 0.551267 0.688089 0.551267
v -0.000000 0.559365 0.797859
v -0.000000 0.688089 0.779609
v -0.564172 0.559365 0.564172
v -0.551267 0.688089 0.551267
v -0.797859 0.559365 -0.000000
v -0.779609 0.688089 -0.000000
v -0.564172 0.559365 -0.564172
v -0.551267 0.688089 -0.551267
v -0.706729 -1.015617 0.000000
v -0.000000 -0.886892 -0.763009
v -0.000000 -1.015617 -0.706729
v 0.539529 -0.886892 -0.539529
v 0.499733 -1.015617 -0.499733
v 0.763009 -0.886892 -0.000000
v 0.706729 -1.015617 0.000000
v 0.539529 -0.886892 0.539529
v 0.499733 -1.015617 0.499733
v -0.000000 -0.886892 0.763009
v -0.000000 -1.015617 0.706729
v -0.539529 -0.886892 0.539529
v -0.499733 -1.015617 0.499733
v -0.763009 -0.886892 -0.000000
v -0.539529 -0.886892 -0.539529
v -0.499733 -1.015617 -0.499733
v -0.000000 -0.559365 -0.797859
v -0.000000 -0.688089 -0.779609
v 0.564172 -0.559365 -0.564172
v 0.551267 -0.688089 -0.551267
v 0.797859 -0.559365 -0.000000
v 0.779609 -0.688089 -0.000000
v 0.564172 -0.559365 0.564172
v 0.551267 -0.688089 0.551267
v -0.000000 -0.559365 0.797859
v -0.000000 -0.688089 0.779609
v -0.564172 -0.559365 0.564172
v -0.551267 -0.688089 0.551267
v -0.797859 -0.559365 -0.000000
v -0.779609 -0.688089 -0.000000
v -0.564172 -0.559365 -0.564172
v -0.551267 -0.688089 -0.551267
vn 0.3548 0.3745 -0.8566
vn 0.8566 0.3745 -0.3548
vn 0.8566 0.3745 0.3548
vn 0.3548 0.3745 0.8566
vn -0.3548 0.3745 0.8566
vn -0.8566 0.3745 0.3548
vn -0.0000 1.0000 -0.0000
vn -0.8566 0.3745 -0.3548
vn -0.3548 0.3745 -0.8566
vn -0.0000 -1.0000 -0.0000
vn 0.3794 0.1299 -0.9161
vn 0.9161 0.1299 -0.3794
vn 0.9161 0.1299 0.3794
vn 0.3794 0.1299 0.9161
vn -0.3794 0.1299 0.9161
vn -0.9161 0.1299 0.3794
vn -0.9161 0.1299 -0.3794
vn -0.3794 0.1299 -0.9161
vn 0.3548 -0.3745 -0.8566
vn 0.8566 -0.3745 -0.3548
vn 0.8566 -0.3745 0.3548
vn 0.3548 -0.3745 0.8566
vn -0.3548 -0.3745 0.8566
vn -0.8566 -0.3745 0.3548
vn -0.8566 -0.3745 -0.3548
vn -0.3548 -0.3745 -0.8566
vn 0.3794 -0.1299 -0.9161
vn 0.9161 -0.1299 -0.3794
vn 0.9161 -0.1299 0.3794
vn 0.3794 -0.1299 0.9161
vn -0.3794 -0.1299 0.9161
vn -0.9161 -0.1299 0.3794
vn -0.9161 -0.1299 -0.3794
vn -0.3794 -0.1299 -0.9161
vt 1.000000 0.500000
vt 1.000000 1.000000
vt 0.875000 1.000000
vt 0.875000 0.500000
vt 0.750000 1.000000
vt 0.750000 0.500000
vt 0.625000 1.000000
vt 0.625000 0.500000
vt 0.500000 1.000000
vt 0.500000 0.500000
vt 0.375000 1.000000
vt 0.375000 0.500000
vt 0.250000 1.000000
vt 0.250000 0.500000
vt 0.419706 0.419706
vt 0.250000 0.490000
vt 0.080294 0.419706
vt 0.010000 0.250000
vt 0.080294 0.080294
vt 0.250000 0.010000
vt 0.419706 0.080294
vt 0.490000 0.250000
vt 0.125000 1.000000
vt 0.125000 0.500000
vt 0.000000 1.000000
vt 0.000000 0.500000
vt 0.750000 0.490000
vt 0.919706 0.419706
vt 0.990000 0.250000
vt 0.919706 0.080294
vt 0.750000 0.010000
vt 0.580294 0.080294
vt 0.510000 0.250000
vt 0.580294 0.419706
s 0
f 90/19/59 91/20/59 93/21/59 92/22/59
f 92/22/60 93/21/60 95/23/60 94/24/60
f 94/24/61 95/23/61 97/25/61 96/26/61
f 96/26/62 97/25/62 99/27/62 98/28/62
f 98/28/63 99/27/63 101/29/63 100/30/63
f 100/30/64 101/29/64 89/31/64 102/32/64
f 93/33/65 91/34/65 104/35/65 89/36/65 101/37/65 99/38/65 97/39/65 95/40/65
f 102/32/66 89/31/66 104/41/66 103/42/66
f 103/42/67 104/41/67 91/43/67 90/44/67
f 90/45/68 92/46/68 94/47/68 96/48/68 98/49/68 100/50/68 102/51/68 103/52/68
f 105/19/69 106/20/69 108/21/69 107/22/69
f 107/22/70 108/21/70 110/23/70 109/24/70
f 109/24/71 110/23/71 112/25/71 111/26/71
f 111/26/72 112/25/72 114/27/72 113/28/72
f 113/28/73 114/27/73 116/29/73 115/30/73
f 115/30/74 116/29/74 118/31/74 117/32/74
f 108/33/65 106/34/65 120/35/65 118/36/65 116/37/65 114/38/65 112/39/65 110/40/65
f 117/32/75 118/31/75 120/41/75 119/42/75
f 119/42/76 120/41/76 106/43/76 105/44/76
f 105/45/68 107/46/68 109/47/68 111/48/68 113/49/68 115/50/68 117/51/68 119/52/68
f 122/19/77 124/22/77 125/21/77 123/20/77
f 124/22/78 126/24/78 127/23/78 125/21/78
f 126/24/79 128/26/79 129/25/79 127/23/79
f 128/26/80 130/28/80 131/27/80 129/25/80
f 130/28/81 132/30/81 133/29/81 131/27/81
f 132/30/82 134/32/82 121/31/82 133/29/82
f 125/33/68 127/40/68 129/39/68 131/38/68 133/37/68 121/36/68 136/35/68 123/34/68
f 134/32/83 135/42/83 136/41/83 121/31/83
f 135/42/84 122/44/84 123/43/84 136/41/84
f 122/45/65 135/52/65 134/51/65 132/50/65 130/49/65 128/48/65 126/47/65 124/46/65
f 137/19/85 139/22/85 140/21/85 138/20/85
f 139/22/86 141/24/86 142/23/86 140/21/86
f 141/24/87 143/26/87 144/25/87 142/23/87
f 143/26/88 145/28/88 146/27/88 144/25/88
f 145/28/89 147/30/89 148/29/89 146/27/89
f 147/30/90 149/32/90 150/31/90 148/29/90
f 140/33/68 142/40/68 144/39/68 146/38/68 148/37/68 150/36/68 152/35/68 138/34/68
f 149/32/91 151/42/91 152/41/91 150/31/91
f 151/42/92 137/44/92 138/43/92 152/41/92
f 137/45/65 151/52/65 149/51/65 147/50/65 145/49/65 143/48/65 141/47/65 139/46/65
